<?xml version="1.0" encoding="UTF-8"?>
<svg width="358px" height="112px" viewBox="0 0 358 112" version="1.1" xmlns="http://www.w3.org/2000/svg" xmlns:xlink="http://www.w3.org/1999/xlink">
    <!-- Generator: Sketch 50.2 (55047) - http://www.bohemiancoding.com/sketch -->
    <title>Group</title>
    <desc>Created with Sketch.</desc>
    <defs></defs>
    <g id="Page-8" stroke="none" stroke-width="1" fill="none" fill-rule="evenodd">
        <g id="18_DRHD_Guide_basic_elements" transform="translate(-570.000000, -276.000000)">
            <g id="Group" transform="translate(570.000000, 275.000000)">
                <g id="Group-344" transform="translate(0.000000, 0.890000)">
                    <path d="M198.3339,25.6528 C194.3839,25.6528 190.3279,27.4888 188.4339,29.3798 L188.3799,29.3798 L188.3799,17.1188 C188.3799,16.7948 188.1629,16.5788 187.8389,16.5788 L178.8049,16.5788 C178.4799,16.5788 178.2639,16.7948 178.2639,17.1188 L178.2639,66.1078 C178.2639,66.4318 178.4799,66.6488 178.8049,66.6488 L187.8389,66.6488 C188.1629,66.6488 188.3799,66.4318 188.3799,66.1078 L188.3799,40.9388 C189.8409,38.1298 193.1939,35.7528 197.2529,35.7528 C201.9039,35.7528 206.3949,38.9948 206.3949,44.8808 L206.3949,66.1078 C206.3949,66.4318 206.6109,66.6488 206.9349,66.6488 L215.9699,66.6488 C216.2939,66.6488 216.5099,66.4318 216.5099,66.1078 L216.5099,44.8808 C216.5099,33.0518 209.5329,25.6528 198.3339,25.6528" id="Fill-288" fill="#1F1112"></path>
                    <path d="M233.6603,41.8024 C234.1463,38.5074 237.8243,34.9974 243.2883,34.9974 C248.5363,34.9974 252.1623,38.5074 252.8103,41.8024 L233.6603,41.8024 Z M263.3053,45.9074 C263.3053,34.0784 253.9463,25.5984 243.1273,25.5984 C231.9823,25.5984 222.5153,34.5114 222.5153,45.8534 C222.5153,57.6824 231.5493,67.0264 244.4253,67.0264 C251.1883,67.0264 256.6513,65.1904 260.7623,62.9754 C261.0873,62.8674 261.2493,62.5434 261.2493,62.1654 L261.2493,53.8474 C261.2493,53.6854 261.1413,53.5774 261.0333,53.5774 C260.9793,53.5774 260.8713,53.6314 260.7623,53.6854 C257.8953,55.5214 250.5923,57.4664 245.6703,57.4664 C237.9873,57.4664 234.0383,53.4154 233.2273,49.1474 L263.3053,49.1474 L263.3053,45.9074 Z" id="Fill-290" fill="#1F1112"></path>
                    <path d="M300.0376,51.9567 C298.9026,53.7387 295.8726,56.8727 290.7326,56.8727 C282.8886,56.8727 279.5886,51.3627 279.5886,46.2857 C279.5886,41.2087 282.8886,35.6987 290.7326,35.6987 C295.8726,35.6987 298.9026,38.8317 300.0376,40.6137 L300.0376,51.9567 Z M309.6666,26.2467 L300.5786,26.2467 C300.3086,26.2467 300.0376,26.5167 300.0376,26.7867 L300.0376,29.3797 L299.9836,29.3797 C297.4956,27.1647 294.0876,25.5987 289.6516,25.5987 C277.8566,25.5987 269.3636,35.1047 269.3636,46.2857 C269.3636,57.4667 277.8566,67.0267 289.6516,67.0267 C294.0876,67.0267 297.4956,65.4057 299.9836,63.1917 L300.0376,63.1917 L300.0376,66.1077 C300.0376,66.3787 300.3086,66.6487 300.5786,66.6487 L309.6666,66.6487 C309.9376,66.6487 310.2076,66.3787 310.2076,66.1077 L310.2076,26.7867 C310.2076,26.5167 309.9376,26.2467 309.6666,26.2467 Z" id="Fill-292" fill="#1F1112"></path>
                    <path d="M347.1031,51.9567 C345.9671,53.7387 342.9381,56.8727 337.7431,56.8727 C329.9541,56.8727 326.6541,51.3627 326.6541,46.2857 C326.6541,41.2087 329.9541,35.6987 337.7431,35.6987 C342.9381,35.6987 345.9671,38.8317 347.1031,40.6137 L347.1031,51.9567 Z M356.7311,16.5787 L347.6431,16.5787 C347.3201,16.5787 347.1031,16.7947 347.1031,17.1187 L347.1031,29.3797 L347.0481,29.3797 C344.5061,27.1647 341.1521,25.5987 336.6621,25.5987 C324.9231,25.5987 316.4301,35.1047 316.4301,46.2857 C316.4301,57.4667 324.9231,67.0267 336.6621,67.0267 C341.1521,67.0267 344.5061,65.3527 347.0481,63.1377 L347.1031,63.1377 L347.1031,66.1077 C347.1031,66.3787 347.3201,66.6487 347.6431,66.6487 L356.7311,66.6487 C357.0021,66.6487 357.2191,66.3787 357.2191,66.1077 L357.2191,17.1187 C357.2191,16.7947 357.0021,16.5787 356.7311,16.5787 Z" id="Fill-294" fill="#1F1112"></path>
                    <path d="M117.8904,51.9567 C116.7544,53.7387 113.6704,56.8727 108.5314,56.8727 C100.6874,56.8727 97.4414,51.3627 97.4414,46.2857 C97.4414,41.2087 100.6874,35.6987 108.5314,35.6987 C113.6704,35.6987 116.7544,38.8317 117.8904,40.6137 L117.8904,51.9567 Z M127.4124,16.5787 L118.4854,16.5787 C118.1614,16.5787 117.8904,16.9027 117.8904,17.2267 L117.8904,29.3797 L117.8364,29.3797 C115.2934,27.1647 111.8854,25.5987 107.4504,25.5987 C95.6024,25.5987 87.2174,35.1047 87.2174,46.2857 C87.2174,57.4667 95.6024,67.0267 107.4504,67.0267 C111.8854,67.0267 115.2934,65.3527 117.8364,63.1377 L117.8904,63.1377 L117.8904,66.0547 C117.8904,66.3787 118.1614,66.6487 118.4854,66.6487 L127.4124,66.6487 C127.7364,66.6487 128.0074,66.3787 128.0074,66.0547 L128.0074,17.2267 C128.0074,16.9027 127.7364,16.5787 127.4124,16.5787 Z" id="Fill-296" fill="#1F1112"></path>
                    <path d="M168.7428,61.8414 C168.7428,58.7094 166.1448,56.1154 162.9538,56.1154 C159.7628,56.1154 157.2198,58.7094 157.2198,61.8414 C157.2198,65.0274 159.7628,67.6214 162.9538,67.6214 C166.1448,67.6214 168.7428,65.0274 168.7428,61.8414" id="Fill-298" fill="#1F1112"></path>
                    <path d="M159.2213,25.6528 C154.1353,25.6528 149.9703,27.9218 148.2933,30.4058 L148.2393,30.4058 L148.2393,26.8948 C148.2393,26.5168 147.9143,26.2468 147.5903,26.2468 L138.7183,26.2468 C138.3933,26.2468 138.0683,26.5168 138.0683,26.8948 L138.0683,66.0008 C138.0683,66.3788 138.3933,66.6488 138.7183,66.6488 L147.5903,66.6488 C147.9143,66.6488 148.2393,66.3788 148.2393,66.0008 L148.2393,42.1808 C149.5383,38.8858 152.6753,35.7528 158.0313,35.7528 L160.3573,35.7528 C160.6823,35.7528 161.0063,35.4828 161.0063,35.1048 L161.0063,26.3008 C161.0063,25.9238 160.6823,25.6528 160.3573,25.6528 L159.2213,25.6528 Z" id="Fill-300" fill="#1F1112"></path>
                    <path d="M35.0823,66.6484 L11.4953,66.6484 C10.9543,66.6484 10.5223,66.1634 10.5223,65.6764 L10.5223,41.9654 C10.5223,30.2784 18.7893,20.4994 29.7803,18.0784 L29.7803,27.6794 C23.6303,29.7824 19.1773,35.6194 19.1773,42.4504 C19.1773,51.0934 26.2103,58.0604 34.8113,58.0604 C43.4673,58.0604 50.4463,51.0934 50.4463,42.4504 C50.4463,35.6314 46.0433,29.8024 39.8963,27.6904 L39.8963,17.9724 C51.1303,20.2094 59.6423,30.1134 59.6423,42.0184 C59.6423,55.5214 48.6073,66.6484 35.0823,66.6484 M34.8113,36.3474 C38.1653,36.3474 40.8713,39.0484 40.8713,42.4504 C40.8713,45.7994 38.1653,48.4994 34.8113,48.4994 C31.4583,48.4994 28.6983,45.7994 28.6983,42.4504 C28.6983,39.0484 31.4583,36.3474 34.8113,36.3474 M39.8963,7.8424 L39.8963,1.6714 C39.8963,1.2394 39.6263,0.9684 39.2483,0.9684 L30.4303,0.9684 C30.0513,0.9684 29.7803,1.2394 29.7803,1.6714 L29.7803,7.9004 C13.1083,10.4184 0.4053,24.6394 0.4053,41.9654 L0.3513,75.6684 C0.3513,76.2084 0.7843,76.6414 1.3253,76.6414 L35.0823,76.6414 C54.2323,76.6414 69.8673,61.1394 69.8673,42.0184 C69.8673,24.5294 56.7843,10.1664 39.8963,7.8424" id="Fill-302" fill="#00AEFF"></path>
                    <polygon id="Fill-304" fill="#1F1112" points="0.4035 107.1775 0.4035 93.1575 4.3645 93.1575 4.3645 98.3555 10.1245 98.3555 10.1245 93.1575 14.0865 93.1575 14.0865 107.1775 10.1245 107.1775 10.1245 101.6705 4.3645 101.6705 4.3645 107.1775"></polygon>
                    <polygon id="Fill-306" fill="#1F1112" points="35.7231 111.6501 38.4281 106.4101 32.5171 93.1571 36.7871 93.1571 40.4961 102.3731 44.0081 93.1571 48.1951 93.1571 39.9151 111.6231"></polygon>
                    <polygon id="Fill-308" fill="#1F1112" points="50.5541 107.1775 50.5541 93.1575 54.4591 93.1575 54.4591 103.8615 58.7301 103.8615 58.7301 93.1575 62.6081 93.1575 62.6081 103.8615 66.9631 103.8615 66.9631 93.1575 70.8401 93.1575 70.8401 107.1775"></polygon>
                    <polygon id="Fill-310" fill="#1F1112" points="74.717 107.1775 74.717 93.1575 78.678 93.1575 78.678 98.3555 84.438 98.3555 84.438 93.1575 88.399 93.1575 88.399 107.1775 84.438 107.1775 84.438 101.6705 78.678 101.6705 78.678 107.1775"></polygon>
                    <polygon id="Fill-312" fill="#1F1112" points="92.2769 107.1775 92.2769 93.1575 96.1819 93.1575 96.1819 101.4175 102.5319 93.1575 106.2409 93.1575 106.2409 107.1775 102.3349 107.1775 102.3349 98.9175 95.9859 107.1775"></polygon>
                    <polygon id="Fill-314" fill="#1F1112" points="110.1163 107.1775 110.1163 93.1575 114.0793 93.1575 114.0793 98.2705 118.9103 93.1575 123.7723 93.1575 117.6743 99.4785 124.7273 107.1775 119.6133 107.1775 114.0793 101.1375 114.0793 107.1775"></polygon>
                    <polygon id="Fill-316" fill="#1F1112" points="126.9464 107.1775 126.9464 93.1575 130.8524 93.1575 130.8524 101.4175 137.2014 93.1575 140.9114 93.1575 140.9114 107.1775 137.0044 107.1775 137.0044 98.9175 130.6554 107.1775"></polygon>
                    <path d="M207.7501,103.8616 L207.7501,96.4726 L203.3661,96.4726 C203.3661,99.3946 202.9461,101.8666 202.1301,103.8616 L207.7501,103.8616 Z M196.2861,110.7456 L196.2861,103.8616 L198.0841,103.8616 C199.1531,102.2046 199.7141,99.5636 199.7701,95.8826 L199.8271,93.1576 L211.6281,93.1576 L211.6281,103.8616 L213.9301,103.8616 L213.9301,110.7456 L210.1941,110.7456 L210.1941,107.1776 L200.0791,107.1776 L200.0791,110.7456 L196.2861,110.7456 Z" id="Fill-318" fill="#1F1112"></path>
                    <polygon id="Fill-320" fill="#1F1112" points="216.6568 107.1775 216.6568 93.1575 220.5618 93.1575 220.5618 101.4175 226.9118 93.1575 230.6208 93.1575 230.6208 107.1775 226.7148 107.1775 226.7148 98.9175 220.3658 107.1775"></polygon>
                    <path d="M241.3527,104.0873 C242.4757,104.0873 243.4027,103.7223 244.1337,102.9633 C244.8647,102.2043 245.2307,101.2773 245.2307,100.1543 C245.2307,99.0293 244.8647,98.1023 244.1337,97.3713 C243.4027,96.6133 242.4757,96.2473 241.3527,96.2473 C240.2287,96.2473 239.3017,96.6133 238.5697,97.3713 C237.8397,98.1023 237.4747,99.0293 237.4747,100.1543 C237.4747,101.2773 237.8397,102.2043 238.5697,102.9633 C239.3017,103.7223 240.2287,104.0873 241.3527,104.0873 M235.7607,94.9283 C237.2217,93.4943 239.0767,92.7923 241.3527,92.7923 C243.6277,92.7923 245.4827,93.4943 246.9437,94.9283 C248.4047,96.3603 249.1347,98.1023 249.1347,100.1543 C249.1347,102.2613 248.4047,104.0023 246.9437,105.4353 C245.4827,106.8393 243.6277,107.5433 241.3527,107.5433 C239.0767,107.5433 237.2217,106.8393 235.7607,105.4353 C234.3007,104.0023 233.5697,102.2613 233.5697,100.1543 C233.5697,98.0753 234.3007,96.3323 235.7607,94.9283" id="Fill-322" fill="#1F1112"></path>
                    <path d="M277.5394,104.3964 L280.9114,104.3964 C282.2884,104.3964 282.9624,103.8614 282.9624,102.8224 C282.9624,101.7824 282.2884,101.2484 280.9114,101.2484 L277.5394,101.2484 L277.5394,104.3964 Z M277.5394,98.7494 L280.2924,98.7494 C281.5584,98.7494 282.1754,98.2704 282.1754,97.3154 C282.1754,96.3594 281.5584,95.8824 280.2924,95.8824 L277.5394,95.8824 L277.5394,98.7494 Z M273.6334,107.1774 L273.6334,93.1574 L281.5584,93.1574 C284.4794,93.1574 286.0534,94.7034 286.0534,96.7534 C286.0534,98.1584 285.4914,99.1414 284.3384,99.7314 C286.1094,100.3494 287.0074,101.5574 287.0074,103.3284 C287.0074,105.6884 285.1544,107.1774 281.8954,107.1774 L273.6334,107.1774 Z" id="Fill-324" fill="#1F1112"></path>
                    <polygon id="Fill-326" fill="#1F1112" points="290.0694 107.1775 290.0694 93.1575 293.9754 93.1575 293.9754 101.4175 300.3254 93.1575 304.0344 93.1575 304.0344 107.1775 300.1284 107.1775 300.1284 98.9175 293.7784 107.1775"></polygon>
                    <polygon id="Fill-328" fill="#1F1112" points="307.9106 107.1775 307.9106 93.1575 311.8716 93.1575 311.8716 98.3555 317.6316 98.3555 317.6316 93.1575 321.5936 93.1575 321.5936 107.1775 317.6316 107.1775 317.6316 101.6705 311.8716 101.6705 311.8716 107.1775"></polygon>
                    <polygon id="Fill-330" fill="#1F1112" points="325.4705 107.1775 325.4705 93.1575 329.3755 93.1575 329.3755 101.4175 335.7255 93.1575 339.4345 93.1575 339.4345 107.1775 335.5295 107.1775 335.5295 98.9175 329.1795 107.1775"></polygon>
                    <path d="M348.9304,96.4722 L348.8734,98.4402 C348.7904,100.3782 348.7064,101.6702 348.2284,103.3562 C347.5544,105.7162 346.2064,107.2062 343.4244,107.2902 C342.7494,107.2902 342.2434,107.2062 341.9344,107.0362 L341.9344,103.8052 C342.1594,103.8892 342.4404,103.9182 342.7494,103.9182 C343.6764,103.9182 344.2664,103.3852 344.5754,102.1192 C344.9124,100.8002 344.9974,99.6192 345.0254,97.2882 L345.1094,93.1572 L357.2184,93.1572 L357.2184,107.1772 L353.2574,107.1772 L353.2574,96.4722 L348.9304,96.4722 Z" id="Fill-332" fill="#1F1112"></path>
                    <path d="M27.1841,102.0612 C26.7841,102.6872 25.7201,103.7892 23.9121,103.7892 C21.1541,103.7892 19.9931,101.8522 19.9931,100.0662 C19.9931,98.2812 21.1541,96.3442 23.9121,96.3442 C25.7201,96.3442 26.7841,97.4452 27.1841,98.0732 L27.1841,102.0612 Z M30.5701,93.0902 L27.3751,93.0902 C27.2791,93.0902 27.1841,93.1842 27.1841,93.2792 L27.1841,94.1212 L27.1651,94.1212 C26.2911,93.3432 25.0911,92.7922 23.5311,92.7922 C19.3841,92.7922 16.3981,96.1352 16.3981,100.0662 C16.3981,103.9982 19.3841,107.3612 23.5311,107.3612 C25.0911,107.3612 26.2911,106.7912 27.1651,106.0122 L27.1841,106.0122 L27.1841,107.0372 C27.1841,107.1332 27.2791,107.2282 27.3751,107.2282 L30.5701,107.2282 C30.6661,107.2282 30.7611,107.1332 30.7611,107.0372 L30.7611,93.2792 C30.7611,93.1842 30.6661,93.0902 30.5701,93.0902 Z" id="Fill-334" fill="#1F1112"></path>
                    <path d="M175.5615,102.0612 C175.1615,102.6872 174.0965,103.7892 172.2885,103.7892 C169.5305,103.7892 168.3695,101.8522 168.3695,100.0662 C168.3695,98.2812 169.5305,96.3442 172.2885,96.3442 C174.0965,96.3442 175.1615,97.4452 175.5615,98.0732 L175.5615,102.0612 Z M178.9905,93.0642 L175.7955,93.0642 C175.6995,93.0642 175.6055,93.1592 175.6055,93.2532 L175.5615,94.1212 L175.5415,94.1212 C174.6675,93.3432 173.4695,92.7922 171.9075,92.7922 C167.7605,92.7922 164.7745,96.1352 164.7745,100.0662 C164.7745,103.9982 167.7605,107.3612 171.9075,107.3612 C173.4695,107.3612 174.6675,106.7912 175.5415,106.0122 L175.5615,106.0122 L175.5615,107.0372 C175.5615,107.1332 175.6555,107.2282 175.7515,107.2282 L178.9465,107.2282 C179.0425,107.2282 179.1375,107.1332 179.1375,107.0372 L179.1815,93.2532 C179.1815,93.1592 179.0865,93.0642 178.9905,93.0642 Z" id="Fill-336" fill="#1F1112"></path>
                    <polygon id="Fill-338" fill="#1F1112" points="183.8147 111.6501 186.5197 106.4101 180.6087 93.1571 184.8787 93.1571 188.5887 102.3731 192.0997 93.1571 196.2867 93.1571 188.0067 111.6231"></polygon>
                    <path d="M157.9521,99.6874 C157.9521,97.3014 155.9751,95.3264 153.5431,95.3264 C151.1121,95.3264 149.1741,97.3014 149.1741,99.6874 C149.1741,102.1154 151.1121,104.0904 153.5431,104.0904 C155.9751,104.0904 157.9521,102.1154 157.9521,99.6874" id="Fill-340" fill="#1F1112"></path>
                    <path d="M265.3187,99.6874 C265.3187,97.3014 263.3407,95.3264 260.9087,95.3264 C258.4787,95.3264 256.5417,97.3014 256.5417,99.6874 C256.5417,102.1154 258.4787,104.0904 260.9087,104.0904 C263.3407,104.0904 265.3187,102.1154 265.3187,99.6874" id="Fill-342" fill="#1F1112"></path>
                </g>
            </g>
        </g>
    </g>
</svg>